<svg id="svg" version="1.1" width="400" height="277.05627705627705" viewBox="0 0 400 277.05627705627705" xmlns="http://www.w3.org/2000/svg" xmlns:xlink="http://www.w3.org/1999/xlink" ><g id="svgg"><path id="path0" d="M196.568 76.890 C 181.832 91.620,169.610 103.673,169.407 103.673 C 169.204 103.673,163.051 97.680,155.734 90.355 C 146.023 80.634,142.339 77.111,142.094 77.315 C 139.385 79.563,52.427 166.875,52.897 166.875 C 53.228 166.875,53.500 166.777,53.500 166.658 C 53.500 166.539,53.843 166.294,54.262 166.114 C 55.158 165.728,55.767 165.347,57.142 164.310 C 57.698 163.891,58.229 163.548,58.322 163.548 C 58.415 163.548,60.539 162.207,63.043 160.568 C 65.547 158.929,68.873 156.778,70.435 155.787 C 71.996 154.796,74.345 153.291,75.653 152.444 C 81.466 148.679,83.198 147.566,90.176 143.119 C 92.282 141.777,94.527 140.336,95.166 139.916 C 95.805 139.496,96.677 138.935,97.105 138.668 C 97.533 138.402,99.423 137.186,101.304 135.967 C 103.185 134.747,105.804 133.063,107.124 132.225 C 108.445 131.386,110.173 130.280,110.965 129.767 C 111.757 129.255,114.463 127.517,116.979 125.906 C 119.494 124.295,122.633 122.282,123.953 121.433 C 125.273 120.584,128.298 118.642,130.674 117.117 C 133.051 115.593,136.586 113.316,138.530 112.059 C 142.813 109.290,141.424 109.163,148.995 113.017 L 155.371 116.262 159.252 116.420 L 163.132 116.578 167.934 119.481 C 170.575 121.078,173.070 122.596,173.478 122.856 C 173.886 123.115,174.502 123.489,174.847 123.687 C 175.192 123.885,179.308 126.354,183.995 129.174 C 193.112 134.661,193.763 135.037,193.763 134.828 C 193.763 134.618,192.876 132.935,192.683 132.779 C 192.589 132.703,192.143 132.141,191.691 131.532 C 191.239 130.922,190.771 130.298,190.650 130.146 C 183.078 120.562,175.811 110.310,176.240 109.817 C 176.693 109.297,180.167 107.207,184.061 105.111 C 185.052 104.578,186.328 103.849,186.897 103.492 C 187.465 103.134,187.979 102.841,188.039 102.841 C 188.098 102.841,189.567 102.010,191.302 100.995 C 194.323 99.226,197.131 97.639,200.416 95.843 C 201.254 95.384,202.137 94.838,202.378 94.628 C 202.619 94.419,202.892 94.248,202.986 94.248 C 203.080 94.248,204.317 93.579,205.736 92.762 C 207.155 91.944,209.810 90.416,211.636 89.366 C 213.462 88.316,215.208 87.306,215.517 87.121 C 215.825 86.936,216.265 86.693,216.493 86.581 C 216.722 86.468,217.817 85.839,218.927 85.184 C 220.037 84.528,221.035 83.989,221.145 83.986 C 221.254 83.982,221.656 83.735,222.037 83.437 C 223.312 82.440,224.145 82.818,231.134 87.565 C 231.944 88.115,232.817 88.695,233.074 88.853 C 236.373 90.884,243.435 95.769,243.649 96.169 C 244.021 96.865,242.859 98.096,238.267 101.871 C 236.695 103.164,234.158 105.352,233.957 105.588 C 233.881 105.678,233.132 106.310,232.294 106.992 C 231.455 107.674,229.764 109.109,228.535 110.180 C 227.307 111.251,225.935 112.427,225.486 112.794 C 224.655 113.474,221.314 116.334,220.763 116.839 C 220.370 117.198,217.784 119.414,216.352 120.618 C 215.100 121.670,214.047 122.587,211.778 124.602 C 210.919 125.364,209.613 126.486,208.877 127.096 C 208.140 127.706,206.091 129.444,204.323 130.959 C 202.555 132.474,200.111 134.563,198.891 135.601 C 197.672 136.640,196.514 137.646,196.320 137.837 C 191.573 142.501,148.307 186.196,148.305 186.328 C 148.303 186.431,148.084 186.572,147.817 186.642 C 147.379 186.756,147.382 186.772,147.846 186.801 C 148.334 186.831,152.088 184.445,161.469 178.142 C 163.756 176.605,168.247 173.608,171.448 171.481 C 174.650 169.354,179.328 166.236,181.843 164.553 C 184.359 162.869,189.037 159.751,192.238 157.623 C 195.440 155.495,199.556 152.753,201.386 151.530 C 203.216 150.308,208.143 147.024,212.335 144.233 C 216.528 141.443,220.083 139.064,220.236 138.947 C 220.388 138.830,230.367 132.163,242.412 124.132 C 263.843 109.840,264.373 109.465,267.221 106.580 C 271.256 102.492,269.911 102.394,280.183 107.525 C 304.886 119.865,348.713 141.649,348.836 141.649 C 349.318 141.649,348.194 140.185,345.535 137.348 C 343.860 135.562,342.260 133.835,341.978 133.509 C 340.806 132.155,337.700 128.726,336.798 127.790 C 335.395 126.335,330.961 121.506,329.551 119.898 C 328.887 119.141,327.513 117.644,326.498 116.572 C 324.264 114.213,323.887 113.801,321.414 111.013 C 320.347 109.810,318.527 107.822,317.371 106.596 C 316.215 105.369,314.536 103.555,313.639 102.564 C 311.641 100.356,310.143 98.708,309.762 98.298 C 309.605 98.129,308.108 96.500,306.436 94.678 C 304.764 92.857,303.021 90.982,302.564 90.512 C 302.107 90.042,301.187 89.037,300.520 88.280 C 299.854 87.522,298.214 85.717,296.876 84.269 C 294.363 81.546,293.899 81.040,292.036 78.976 C 290.703 77.500,287.653 74.204,285.518 71.933 C 284.658 71.019,282.725 68.898,281.222 67.221 C 277.445 63.006,277.815 63.157,275.950 65.068 C 268.629 72.569,257.707 83.437,257.489 83.437 C 257.341 83.437,249.732 75.984,240.581 66.875 C 231.430 57.765,223.812 50.266,223.652 50.209 C 223.492 50.153,211.305 62.159,196.568 76.890 " stroke="none" fill="#11387e" fill-rule="evenodd"></path><path id="path1" d="M0.000 138.600 L 0.000 277.200 200.000 277.200 L 400.000 277.200 400.000 138.600 L 400.000 0.000 200.000 0.000 L 0.000 0.000 0.000 138.600 M240.645 65.350 C 249.786 74.459,257.353 81.941,257.461 81.976 C 257.569 82.011,262.073 77.551,267.469 72.066 C 272.865 66.581,277.411 62.093,277.572 62.093 C 277.895 62.093,280.647 64.898,283.850 68.494 C 285.681 70.551,288.745 73.851,290.370 75.520 C 290.677 75.834,291.910 77.214,293.112 78.586 C 294.314 79.958,296.558 82.406,298.099 84.025 C 299.640 85.644,301.586 87.765,302.422 88.737 C 303.259 89.710,304.819 91.430,305.887 92.560 C 309.120 95.978,309.423 96.306,311.432 98.574 C 312.498 99.778,314.254 101.698,315.334 102.841 C 317.417 105.046,317.586 105.231,320.258 108.219 C 321.199 109.272,322.978 111.205,324.212 112.516 C 325.446 113.827,326.943 115.451,327.539 116.125 C 328.134 116.799,329.182 117.935,329.868 118.650 C 330.554 119.366,331.418 120.311,331.788 120.752 C 332.400 121.480,336.843 126.334,338.877 128.497 C 339.335 128.983,340.014 129.740,340.388 130.179 C 340.761 130.618,341.884 131.853,342.883 132.924 C 349.815 140.355,351.412 142.155,351.937 143.130 C 352.893 144.904,350.251 144.141,344.837 141.080 C 344.608 140.951,343.860 140.581,343.174 140.257 C 342.488 139.934,341.739 139.564,341.511 139.434 C 341.282 139.305,338.912 138.118,336.244 136.798 C 333.576 135.477,331.206 134.288,330.977 134.156 C 330.748 134.023,330.000 133.651,329.314 133.327 C 328.628 133.004,327.879 132.631,327.651 132.498 C 326.518 131.840,322.680 130.007,322.434 130.007 C 322.279 130.007,322.111 129.913,322.061 129.799 C 322.010 129.685,320.222 128.739,318.087 127.698 C 315.953 126.657,314.019 125.701,313.791 125.572 C 313.132 125.203,303.996 120.664,303.534 120.477 C 303.306 120.384,302.931 120.192,302.703 120.049 C 302.474 119.907,302.100 119.720,301.871 119.634 C 301.642 119.547,301.268 119.360,301.040 119.218 C 300.811 119.075,300.437 118.888,300.208 118.802 C 299.979 118.716,299.605 118.529,299.376 118.386 C 299.148 118.244,298.773 118.054,298.545 117.965 C 298.316 117.876,297.579 117.493,296.907 117.114 C 296.235 116.734,295.533 116.424,295.347 116.424 C 295.161 116.424,294.864 116.249,294.686 116.036 C 294.509 115.822,294.042 115.566,293.649 115.467 C 293.256 115.369,292.753 115.107,292.532 114.886 C 292.310 114.665,291.904 114.484,291.629 114.484 C 291.353 114.484,290.973 114.297,290.783 114.068 C 290.593 113.839,290.219 113.652,289.951 113.652 C 289.684 113.652,289.310 113.465,289.120 113.236 C 288.930 113.008,288.556 112.821,288.288 112.821 C 288.021 112.821,287.646 112.633,287.457 112.405 C 287.267 112.176,286.893 111.989,286.625 111.989 C 286.358 111.989,285.983 111.802,285.793 111.573 C 285.604 111.344,285.222 111.157,284.944 111.157 C 284.667 111.157,284.370 111.043,284.284 110.904 C 284.111 110.625,282.130 109.650,281.150 109.362 C 280.807 109.262,280.527 109.073,280.527 108.943 C 280.527 108.813,280.152 108.624,279.695 108.524 C 279.238 108.423,278.863 108.235,278.863 108.105 C 278.863 107.975,278.583 107.786,278.240 107.685 C 277.261 107.398,275.279 106.423,275.106 106.144 C 275.020 106.004,274.723 105.891,274.446 105.891 C 274.169 105.891,273.786 105.703,273.597 105.475 C 273.407 105.246,273.033 105.059,272.765 105.059 C 272.497 105.059,272.123 104.872,271.933 104.643 C 271.401 104.002,271.374 104.021,267.877 107.491 C 264.896 110.449,254.434 118.087,253.364 118.087 C 253.235 118.087,253.088 118.186,253.038 118.306 C 252.965 118.479,248.300 121.702,245.933 123.216 C 245.539 123.467,237.160 129.062,236.175 129.731 C 234.340 130.977,232.762 131.947,232.570 131.947 C 232.443 131.947,232.298 132.046,232.248 132.167 C 232.168 132.356,226.438 136.297,225.110 137.076 C 224.850 137.228,223.732 137.976,222.626 138.739 C 221.520 139.501,220.313 140.312,219.944 140.541 C 219.575 140.769,218.243 141.654,216.983 142.506 C 213.046 145.170,212.039 145.807,211.767 145.807 C 211.622 145.807,211.504 145.925,211.504 146.069 C 211.504 146.214,211.195 146.494,210.817 146.693 C 210.440 146.892,209.660 147.383,209.085 147.785 C 207.793 148.687,205.040 150.484,203.900 151.170 C 203.432 151.451,202.792 151.919,202.477 152.209 C 202.162 152.500,201.806 152.737,201.685 152.737 C 201.565 152.737,201.011 153.080,200.455 153.500 C 199.898 153.919,199.228 154.387,198.964 154.539 C 198.701 154.692,197.454 155.515,196.193 156.369 C 193.271 158.349,190.847 159.968,190.012 160.499 C 189.651 160.728,188.882 161.243,188.303 161.645 C 186.955 162.579,184.208 164.369,183.110 165.030 C 182.642 165.311,182.002 165.779,181.687 166.069 C 181.372 166.360,181.016 166.597,180.895 166.597 C 180.775 166.597,180.221 166.940,179.665 167.360 C 179.108 167.779,178.438 168.247,178.174 168.399 C 177.911 168.552,176.664 169.375,175.403 170.229 C 172.481 172.209,170.057 173.828,169.222 174.359 C 168.861 174.588,168.092 175.103,167.513 175.505 C 166.574 176.156,163.917 177.910,162.740 178.656 C 162.500 178.808,161.848 179.276,161.292 179.695 C 160.736 180.114,160.192 180.457,160.083 180.457 C 159.975 180.457,159.431 180.800,158.875 181.220 C 158.318 181.639,157.648 182.107,157.384 182.259 C 157.121 182.412,155.874 183.235,154.613 184.089 C 151.360 186.293,149.162 187.759,148.627 188.080 C 148.373 188.233,147.716 188.697,147.166 189.111 C 145.200 190.592,143.035 191.521,143.035 190.884 C 143.035 189.903,145.341 187.498,169.258 163.525 C 183.269 149.482,194.876 137.838,195.052 137.651 C 195.297 137.388,195.142 137.188,194.379 136.777 C 193.834 136.484,193.254 136.118,193.090 135.964 C 192.927 135.809,192.481 135.530,192.100 135.342 C 191.719 135.154,191.162 134.844,190.863 134.652 C 190.384 134.345,189.847 134.013,187.526 132.589 C 187.221 132.401,186.722 132.116,186.417 131.955 C 186.112 131.794,185.489 131.416,185.031 131.116 C 184.574 130.815,183.890 130.435,183.512 130.271 C 183.134 130.107,182.760 129.885,182.681 129.779 C 182.502 129.540,179.185 127.512,178.973 127.512 C 178.888 127.512,178.345 127.188,177.767 126.791 C 177.188 126.395,176.435 125.961,176.091 125.828 C 175.748 125.695,175.468 125.458,175.468 125.301 C 175.468 125.145,175.333 125.017,175.169 125.017 C 175.005 125.017,173.687 124.300,172.240 123.423 C 170.794 122.547,169.088 121.529,168.450 121.162 C 167.812 120.795,166.791 120.176,166.182 119.785 C 162.996 117.745,162.823 117.692,158.836 117.508 L 155.094 117.336 151.213 115.342 C 149.079 114.245,147.214 113.229,147.069 113.084 C 146.924 112.939,146.596 112.821,146.340 112.821 C 146.084 112.821,145.720 112.633,145.530 112.405 C 145.340 112.176,144.885 111.989,144.517 111.989 C 144.150 111.989,143.778 111.802,143.690 111.573 C 143.502 111.082,141.911 111.007,141.451 111.467 C 141.105 111.812,140.166 112.375,139.224 112.802 C 138.881 112.957,138.600 113.183,138.600 113.305 C 138.600 113.427,138.132 113.771,137.561 114.070 C 136.989 114.369,135.930 115.021,135.207 115.519 C 134.485 116.017,133.767 116.424,133.613 116.424 C 133.459 116.424,133.333 116.546,133.333 116.696 C 133.333 116.846,133.021 117.046,132.640 117.142 C 132.259 117.238,131.947 117.430,131.947 117.570 C 131.947 117.710,131.667 117.951,131.324 118.106 C 130.484 118.486,129.766 118.923,128.621 119.751 C 128.094 120.132,127.452 120.568,127.195 120.721 C 126.938 120.873,126.062 121.407,125.249 121.908 C 124.435 122.408,123.520 122.970,123.216 123.155 C 122.911 123.341,122.599 123.558,122.523 123.638 C 122.386 123.781,121.250 124.542,120.166 125.217 C 119.861 125.407,119.394 125.642,119.127 125.738 C 118.860 125.835,118.639 125.993,118.636 126.089 C 118.632 126.186,117.812 126.764,116.814 127.374 C 115.815 127.983,113.843 129.240,112.433 130.167 C 111.022 131.093,109.690 131.937,109.473 132.041 C 109.256 132.145,108.746 132.448,108.340 132.713 C 106.703 133.781,104.323 135.366,103.615 135.859 C 103.202 136.147,102.791 136.383,102.702 136.383 C 102.613 136.383,102.390 136.515,102.206 136.676 C 101.928 136.920,98.997 138.789,97.233 139.848 C 96.979 140.000,96.297 140.450,95.718 140.848 C 94.148 141.925,88.477 145.574,88.011 145.807 C 87.681 145.972,80.578 150.621,79.498 151.379 C 79.085 151.669,78.667 151.906,78.568 151.906 C 78.470 151.906,77.916 152.280,77.339 152.737 C 76.761 153.195,76.208 153.569,76.110 153.569 C 76.011 153.569,75.592 153.802,75.179 154.087 C 72.889 155.667,70.940 156.895,70.723 156.895 C 70.588 156.895,70.323 157.081,70.135 157.307 C 69.947 157.533,69.246 157.992,68.577 158.326 C 67.907 158.661,67.360 159.017,67.360 159.118 C 67.360 159.219,67.079 159.447,66.736 159.626 C 66.393 159.804,65.738 160.197,65.281 160.499 C 64.823 160.800,64.262 161.132,64.033 161.235 C 63.805 161.338,63.180 161.745,62.646 162.139 C 62.112 162.533,61.426 163.007,61.122 163.193 C 60.817 163.378,59.945 163.912,59.182 164.380 C 58.420 164.847,57.547 165.381,57.242 165.567 C 56.937 165.753,56.625 165.967,56.549 166.043 C 56.228 166.364,54.616 167.429,54.452 167.429 C 54.353 167.429,53.817 167.772,53.261 168.191 C 50.643 170.165,48.233 171.270,48.233 170.496 C 48.233 170.354,48.347 169.948,48.485 169.595 C 48.738 168.953,141.203 76.363,142.084 75.870 C 142.468 75.656,144.928 77.981,155.891 88.918 C 163.228 96.238,169.373 102.172,169.548 102.105 C 169.722 102.038,181.697 90.130,196.159 75.644 C 210.621 61.157,222.703 49.196,223.008 49.064 C 223.313 48.931,223.666 48.814,223.793 48.805 C 223.920 48.795,231.503 56.240,240.645 65.350 M222.165 84.563 C 222.065 84.725,221.715 84.974,221.387 85.117 C 221.059 85.260,220.603 85.493,220.374 85.636 C 219.217 86.357,214.875 88.871,214.014 89.319 C 213.472 89.600,212.654 90.072,212.197 90.367 C 211.739 90.662,210.991 91.089,210.534 91.316 C 210.076 91.543,209.078 92.106,208.316 92.569 C 207.554 93.031,206.618 93.564,206.237 93.754 C 205.856 93.943,205.481 94.163,205.405 94.242 C 205.273 94.378,203.815 95.190,201.941 96.170 C 201.483 96.409,201.044 96.690,200.965 96.795 C 200.885 96.900,200.511 97.120,200.133 97.284 C 199.755 97.448,199.071 97.829,198.614 98.129 C 198.157 98.429,197.514 98.794,197.186 98.939 C 196.857 99.085,196.507 99.336,196.407 99.498 C 196.307 99.660,196.052 99.792,195.840 99.792 C 195.627 99.792,194.918 100.152,194.262 100.591 C 193.606 101.031,192.134 101.873,190.991 102.462 C 189.848 103.052,188.850 103.607,188.773 103.696 C 188.697 103.785,187.824 104.317,186.833 104.878 C 185.842 105.440,184.844 106.022,184.615 106.173 C 184.387 106.323,183.938 106.560,183.618 106.700 C 183.299 106.839,182.205 107.463,181.188 108.085 C 180.171 108.708,179.241 109.217,179.120 109.217 C 179.000 109.217,178.516 109.501,178.045 109.849 L 177.189 110.481 179.223 113.244 C 180.342 114.765,181.451 116.227,181.689 116.493 C 181.926 116.760,182.121 117.103,182.121 117.256 C 182.121 117.408,182.228 117.533,182.360 117.533 C 182.492 117.533,182.960 118.063,183.400 118.711 C 183.840 119.359,184.426 120.139,184.702 120.444 C 184.979 120.748,185.651 121.669,186.196 122.489 C 186.741 123.309,187.419 124.179,187.703 124.422 C 187.987 124.665,188.219 125.023,188.219 125.218 C 188.219 125.412,188.335 125.572,188.478 125.572 C 188.620 125.572,188.808 125.799,188.896 126.076 C 188.984 126.354,189.410 126.947,189.843 127.393 C 190.276 127.840,190.951 128.704,191.343 129.314 C 191.735 129.924,192.347 130.763,192.702 131.179 C 193.057 131.595,193.971 132.807,194.733 133.873 C 195.495 134.939,196.289 135.815,196.496 135.820 C 196.807 135.827,199.769 133.667,200.851 132.644 C 202.249 131.323,205.680 128.338,206.773 127.493 C 207.082 127.253,207.868 126.566,208.519 125.966 C 209.170 125.366,210.139 124.519,210.672 124.084 C 212.822 122.332,214.109 121.234,214.938 120.444 C 215.418 119.986,216.432 119.113,217.191 118.503 C 217.951 117.893,218.672 117.238,218.794 117.048 C 218.916 116.857,219.123 116.701,219.254 116.701 C 219.385 116.701,220.221 115.999,221.112 115.142 C 222.002 114.284,223.167 113.255,223.701 112.855 C 224.234 112.455,224.809 112.003,224.979 111.850 C 225.148 111.698,225.662 111.243,226.121 110.840 C 226.580 110.437,227.635 109.502,228.465 108.761 C 229.295 108.021,230.462 107.041,231.058 106.584 C 231.654 106.126,233.018 104.952,234.089 103.973 C 235.160 102.995,236.620 101.732,237.333 101.167 C 242.109 97.384,243.348 95.634,241.251 95.634 C 241.041 95.634,240.798 95.447,240.710 95.218 C 240.622 94.990,240.423 94.802,240.267 94.802 C 240.111 94.802,239.375 94.366,238.633 93.832 C 237.890 93.299,237.207 92.862,237.115 92.862 C 237.023 92.862,236.475 92.488,235.897 92.030 C 235.320 91.573,234.759 91.199,234.650 91.199 C 234.541 91.199,233.980 90.825,233.403 90.367 C 232.825 89.910,232.272 89.536,232.173 89.536 C 231.926 89.536,230.236 88.336,230.122 88.080 C 230.072 87.966,229.914 87.872,229.773 87.872 C 229.632 87.872,228.895 87.436,228.136 86.902 C 227.377 86.369,226.657 85.932,226.537 85.932 C 226.417 85.932,225.909 85.558,225.408 85.100 C 224.464 84.238,222.561 83.922,222.165 84.563 " stroke="none" fill="#fbfbfb" fill-rule="evenodd"></path><path id="path2" d="M196.258 76.091 C 181.546 90.804,169.594 102.841,169.697 102.841 C 169.800 102.841,181.775 90.926,196.307 76.363 C 211.301 61.338,223.017 49.810,223.392 49.712 C 223.928 49.572,224.256 49.766,225.124 50.735 C 225.713 51.393,226.195 51.836,226.195 51.720 C 226.195 51.244,224.099 49.342,223.574 49.342 C 223.191 49.342,214.306 58.043,196.258 76.091 M226.767 52.229 C 227.302 52.941,257.216 82.723,257.498 82.824 C 257.620 82.868,262.122 78.408,267.503 72.914 C 272.885 67.420,277.412 62.924,277.565 62.924 C 277.897 62.924,280.073 65.135,283.295 68.746 C 284.588 70.194,286.591 72.377,287.746 73.597 C 288.902 74.816,291.363 77.498,293.215 79.556 C 296.836 83.581,302.436 89.468,300.466 87.179 C 299.810 86.417,297.882 84.297,296.182 82.467 C 294.482 80.638,291.860 77.769,290.356 76.091 C 288.852 74.414,287.298 72.730,286.903 72.349 C 286.508 71.968,284.524 69.811,282.495 67.555 C 280.465 65.299,278.485 63.244,278.094 62.987 L 277.382 62.521 267.454 72.625 L 257.526 82.730 241.947 67.214 C 233.379 58.680,226.548 51.937,226.767 52.229 M95.808 122.478 C 70.367 147.914,49.441 168.925,49.305 169.168 C 48.509 170.590,50.316 169.761,55.742 166.216 C 59.095 164.025,65.451 159.929,78.594 151.490 C 80.968 149.965,84.558 147.647,86.570 146.338 C 88.582 145.028,90.353 143.906,90.506 143.843 C 91.029 143.627,96.466 139.983,96.466 139.849 C 96.466 139.775,95.835 140.118,95.065 140.612 C 94.295 141.106,93.255 141.760,92.754 142.065 C 92.253 142.370,90.419 143.545,88.680 144.676 C 86.940 145.807,84.705 147.255,83.714 147.894 C 82.723 148.533,80.478 149.984,78.725 151.119 C 76.972 152.253,74.947 153.549,74.225 153.999 C 73.123 154.685,67.140 158.535,57.586 164.706 C 55.859 165.821,51.243 168.689,50.678 168.998 C 50.574 169.055,50.402 168.961,50.296 168.789 C 50.108 168.484,140.935 77.346,142.034 76.737 C 142.491 76.483,144.248 78.129,156.033 89.852 L 169.508 103.257 156.065 89.744 C 148.671 82.311,142.496 76.230,142.343 76.230 C 142.190 76.230,121.249 97.042,95.808 122.478 M220.784 84.719 C 218.166 86.235,217.281 86.985,219.681 85.654 C 223.414 83.583,223.368 83.600,224.058 83.914 C 224.927 84.311,242.762 96.135,242.950 96.440 C 243.095 96.675,240.759 98.846,237.422 101.577 C 236.507 102.325,235.634 103.078,235.482 103.250 C 235.329 103.421,233.209 105.258,230.769 107.331 C 227.146 110.411,219.782 116.722,216.493 119.565 C 216.112 119.895,214.357 121.412,212.592 122.937 C 210.828 124.462,207.658 127.207,205.549 129.037 C 197.078 136.385,196.292 136.928,195.711 135.842 C 195.552 135.545,194.643 134.284,193.692 133.039 C 190.634 129.038,189.614 127.667,189.119 126.890 C 188.853 126.472,188.534 126.129,188.411 126.128 C 188.151 126.126,187.977 125.881,192.169 131.429 C 193.960 133.800,195.424 135.978,195.422 136.269 C 195.419 136.581,195.334 136.676,195.214 136.501 C 195.102 136.337,194.823 136.135,194.593 136.051 C 194.364 135.967,190.731 133.837,186.520 131.318 C 182.309 128.800,178.505 126.526,178.067 126.265 C 177.351 125.839,177.326 125.838,177.824 126.255 C 178.129 126.510,181.933 128.845,186.279 131.442 C 190.624 134.040,194.520 136.404,194.937 136.695 C 196.135 137.532,196.386 137.350,207.885 127.276 C 208.868 126.415,211.000 124.588,212.624 123.216 C 214.247 121.843,217.297 119.224,219.400 117.394 C 221.504 115.565,224.049 113.398,225.057 112.580 C 226.064 111.761,227.581 110.451,228.428 109.669 C 229.275 108.887,230.897 107.475,232.032 106.532 C 241.065 99.029,243.477 96.776,243.040 96.248 C 242.428 95.509,224.005 83.437,223.490 83.437 C 223.218 83.437,222.001 84.014,220.784 84.719 M213.658 88.783 C 211.565 90.016,209.901 91.075,209.961 91.135 C 210.021 91.195,211.609 90.339,213.490 89.233 C 217.376 86.949,218.115 86.475,217.733 86.514 C 217.585 86.529,215.751 87.550,213.658 88.783 M302.691 89.936 C 303.371 90.630,303.978 91.199,304.040 91.199 C 304.276 91.199,302.268 89.028,301.871 88.855 C 301.642 88.755,302.011 89.241,302.691 89.936 M205.683 93.382 C 203.624 94.575,197.637 97.996,192.377 100.985 C 187.117 103.973,182.564 106.625,182.259 106.877 C 181.730 107.314,181.737 107.317,182.398 106.936 C 182.779 106.716,183.963 106.048,185.029 105.451 C 186.096 104.854,187.170 104.241,187.417 104.089 C 187.664 103.936,188.373 103.533,188.993 103.192 C 192.436 101.300,209.189 91.668,209.411 91.453 C 209.923 90.958,209.385 91.237,205.683 93.382 M306.036 93.617 C 307.176 94.794,308.139 95.812,308.177 95.880 C 308.216 95.948,308.298 95.952,308.361 95.888 C 308.507 95.740,304.464 91.476,304.178 91.476 C 304.060 91.476,304.896 92.439,306.036 93.617 M311.899 99.935 C 313.778 101.995,317.062 105.597,319.196 107.939 C 321.331 110.281,324.501 113.741,326.242 115.628 C 327.984 117.514,329.859 119.556,330.410 120.166 C 330.962 120.776,333.030 123.031,335.007 125.177 C 336.983 127.323,339.816 130.413,341.303 132.043 C 342.789 133.673,344.006 134.934,344.006 134.844 C 344.006 134.704,338.043 128.020,335.967 125.832 C 334.310 124.085,332.133 121.724,330.999 120.443 C 330.325 119.681,329.015 118.241,328.089 117.243 C 325.385 114.333,321.030 109.596,318.033 106.306 C 316.506 104.629,314.552 102.509,313.691 101.594 C 312.830 100.679,311.409 99.097,310.533 98.077 C 309.657 97.057,308.837 96.215,308.711 96.206 C 308.586 96.196,310.020 97.874,311.899 99.935 M269.988 104.574 C 269.731 105.103,269.740 105.131,270.047 104.757 C 270.246 104.515,270.596 104.244,270.825 104.156 C 271.162 104.024,271.150 103.990,270.765 103.972 C 270.504 103.960,270.154 104.231,269.988 104.574 M273.752 105.189 C 274.048 105.413,274.414 105.596,274.567 105.596 C 274.719 105.596,274.602 105.413,274.306 105.189 C 274.010 104.965,273.643 104.782,273.491 104.782 C 273.338 104.782,273.456 104.965,273.752 105.189 M267.221 107.361 C 266.078 108.572,264.425 110.050,263.548 110.647 C 261.823 111.822,261.411 112.328,262.839 111.519 C 263.835 110.956,269.653 105.449,269.439 105.273 C 269.362 105.211,268.365 106.151,267.221 107.361 M275.415 106.020 C 275.711 106.244,276.078 106.427,276.230 106.427 C 276.383 106.427,276.265 106.244,275.969 106.020 C 275.673 105.796,275.306 105.613,275.154 105.613 C 275.001 105.613,275.119 105.796,275.415 106.020 M277.078 106.852 C 277.374 107.076,277.741 107.259,277.893 107.259 C 278.046 107.259,277.928 107.076,277.632 106.852 C 277.336 106.628,276.970 106.445,276.817 106.445 C 276.665 106.445,276.782 106.628,277.078 106.852 M178.933 108.624 C 177.551 109.451,176.728 110.118,176.750 110.394 C 176.787 110.864,180.782 116.446,181.509 117.042 C 181.745 117.236,180.786 115.848,179.378 113.957 C 176.441 110.015,176.419 110.428,179.668 108.495 C 180.788 107.828,181.580 107.286,181.428 107.290 C 181.275 107.293,180.152 107.894,178.933 108.624 M278.863 107.696 C 279.245 107.915,280.118 108.367,280.804 108.699 C 281.490 109.031,282.270 109.413,282.536 109.547 C 282.803 109.681,283.021 109.732,283.021 109.660 C 283.021 109.509,278.613 107.271,278.346 107.286 C 278.250 107.292,278.482 107.476,278.863 107.696 M283.322 109.877 C 283.683 110.206,286.733 111.697,286.835 111.594 C 286.959 111.470,283.757 109.771,283.399 109.771 C 283.293 109.771,283.258 109.819,283.322 109.877 M141.788 110.655 C 140.368 111.457,129.175 118.701,129.175 118.819 C 129.175 118.984,129.425 118.841,131.670 117.384 C 141.881 110.761,142.253 110.542,142.930 110.762 C 143.360 110.903,143.378 110.880,143.035 110.633 C 142.524 110.266,142.477 110.267,141.788 110.655 M143.590 111.016 C 143.590 111.206,145.287 112.047,145.414 111.920 C 145.474 111.860,145.088 111.604,144.556 111.350 C 144.025 111.097,143.590 110.946,143.590 111.016 M287.203 111.823 C 287.266 111.884,301.351 118.934,318.503 127.491 C 335.655 136.047,349.905 143.170,350.169 143.319 C 352.572 144.671,351.333 142.471,347.267 138.163 C 346.393 137.237,345.364 136.114,344.980 135.668 C 344.597 135.223,344.283 134.946,344.283 135.053 C 344.283 135.161,345.717 136.833,347.471 138.768 C 350.662 142.293,350.876 142.591,350.407 142.881 C 350.268 142.967,336.044 135.988,318.796 127.374 C 290.730 113.356,286.770 111.407,287.203 111.823 M251.559 118.671 C 246.071 122.335,241.455 125.468,241.303 125.632 C 240.853 126.116,241.316 125.816,251.767 118.849 C 260.241 113.200,262.052 111.939,261.608 111.998 C 261.570 112.003,257.048 115.006,251.559 118.671 M147.193 112.812 C 147.841 113.296,151.976 115.337,152.086 115.227 C 152.140 115.173,151.092 114.581,149.758 113.911 C 147.074 112.564,146.575 112.350,147.193 112.812 M152.460 115.445 C 152.460 116.277,155.573 117.106,159.080 117.206 L 162.790 117.312 165.317 118.840 C 166.707 119.680,167.958 120.435,168.095 120.518 C 168.233 120.600,168.268 120.541,168.172 120.386 C 168.077 120.232,166.841 119.414,165.427 118.571 L 162.855 117.036 159.113 116.929 C 155.686 116.832,155.248 116.759,153.915 116.064 C 153.115 115.647,152.460 115.368,152.460 115.445 M182.018 117.879 C 182.388 118.499,188.015 125.849,188.118 125.849 C 188.358 125.849,188.144 125.514,186.902 123.938 C 186.178 123.019,184.789 121.202,183.816 119.900 C 182.258 117.815,181.409 116.861,182.018 117.879 M123.770 122.140 C 121.026 123.905,118.656 125.482,118.503 125.643 C 118.135 126.034,119.898 124.975,122.800 123.063 C 124.096 122.209,125.717 121.177,126.403 120.769 C 127.684 120.009,129.145 118.932,128.898 118.931 C 128.822 118.930,126.514 120.374,123.770 122.140 M168.690 120.819 C 169.191 121.269,176.939 125.856,177.035 125.760 C 177.088 125.707,176.040 125.008,174.706 124.206 C 173.372 123.405,171.532 122.271,170.617 121.685 C 169.085 120.705,168.042 120.236,168.690 120.819 M193.408 157.461 C 167.370 174.835,145.946 189.051,145.799 189.051 C 144.987 189.051,145.957 187.792,149.800 183.858 C 152.149 181.454,154.172 179.362,154.295 179.210 C 154.418 179.058,152.431 180.991,149.879 183.507 C 145.464 187.858,143.604 189.989,143.934 190.319 C 144.189 190.573,146.950 188.766,180.319 166.506 C 198.157 154.607,214.872 143.468,217.464 141.753 C 220.055 140.038,222.301 138.534,222.453 138.410 C 222.606 138.286,226.816 135.466,231.809 132.143 C 239.538 126.999,241.283 125.782,240.818 125.861 C 240.780 125.867,219.445 140.087,193.408 157.461 M116.073 127.106 C 115.504 127.493,115.038 127.869,115.038 127.942 C 115.038 128.015,115.537 127.744,116.147 127.341 C 117.115 126.700,117.442 126.403,117.181 126.403 C 117.141 126.403,116.642 126.720,116.073 127.106 M111.110 130.238 C 107.882 132.361,106.424 133.464,108.524 132.196 C 112.267 129.936,115.061 128.050,114.607 128.089 C 114.463 128.102,112.889 129.069,111.110 130.238 M104.920 134.237 C 103.701 135.037,101.362 136.544,99.723 137.585 C 98.084 138.627,96.743 139.538,96.743 139.610 C 96.743 139.789,96.797 139.756,102.703 135.960 C 103.465 135.470,104.806 134.617,105.683 134.066 C 107.017 133.226,107.555 132.773,107.207 132.780 C 107.169 132.781,106.140 133.437,104.920 134.237 M181.912 151.422 C 174.556 158.778,168.538 164.872,168.538 164.962 C 168.538 165.052,174.556 159.087,181.913 151.707 C 197.446 136.122,195.546 138.046,195.402 138.046 C 195.338 138.046,189.267 144.065,181.912 151.422 M164.864 168.474 C 163.072 170.262,161.606 171.810,161.607 171.913 C 161.607 172.016,163.105 170.607,164.934 168.781 C 167.863 165.858,168.468 165.196,168.191 165.217 C 168.153 165.219,166.656 166.685,164.864 168.474 M157.866 175.531 C 156.036 177.390,154.960 178.541,155.475 178.090 C 156.787 176.940,161.331 172.423,161.331 172.269 C 161.331 172.023,161.166 172.178,157.866 175.531 " stroke="none" fill="#a5b6cf" fill-rule="evenodd"></path><path id="path3" d="M196.477 76.206 C 181.876 90.829,169.772 102.853,169.580 102.926 C 169.385 103.000,163.354 97.195,155.894 89.753 C 144.229 78.115,142.492 76.483,142.034 76.737 C 140.935 77.346,50.108 168.484,50.296 168.789 C 50.402 168.961,50.574 169.055,50.678 168.998 C 51.243 168.689,55.859 165.821,57.586 164.706 C 67.140 158.535,73.123 154.685,74.225 153.999 C 74.947 153.549,76.972 152.253,78.725 151.119 C 82.567 148.633,84.474 147.403,88.843 144.594 C 90.672 143.417,93.941 141.307,96.108 139.904 C 98.274 138.501,100.769 136.899,101.652 136.345 C 102.535 135.791,105.764 133.732,108.828 131.771 C 111.892 129.810,114.600 128.080,114.845 127.928 C 115.091 127.775,121.128 123.895,128.262 119.306 C 135.397 114.716,141.513 110.814,141.854 110.635 C 142.404 110.347,143.217 110.684,148.923 113.561 L 155.371 116.813 159.113 116.925 L 162.855 117.036 165.437 118.601 C 166.858 119.462,168.542 120.465,169.180 120.829 C 169.818 121.194,170.963 121.897,171.726 122.391 C 173.947 123.832,194.069 135.857,194.562 136.039 C 194.809 136.129,195.102 136.337,195.214 136.501 C 195.334 136.676,195.419 136.579,195.422 136.267 C 195.424 135.974,192.468 131.806,188.853 127.004 C 185.238 122.202,182.026 117.918,181.716 117.485 C 181.405 117.051,180.185 115.400,179.004 113.816 C 175.981 109.760,175.858 110.272,180.457 107.764 C 181.448 107.224,183.881 105.847,185.863 104.705 C 188.897 102.956,214.558 88.297,218.018 86.336 C 218.628 85.990,219.998 85.197,221.063 84.572 C 222.128 83.948,223.220 83.437,223.491 83.437 C 224.006 83.437,242.429 95.510,243.040 96.248 C 243.477 96.776,241.065 99.029,232.032 106.532 C 230.897 107.475,229.275 108.887,228.428 109.669 C 227.581 110.451,226.064 111.761,225.057 112.580 C 224.049 113.398,221.504 115.565,219.400 117.394 C 217.297 119.224,214.247 121.843,212.624 123.216 C 211.000 124.588,208.868 126.415,207.885 127.276 C 198.990 135.068,197.069 136.660,196.560 136.660 C 196.389 136.660,196.007 137.058,195.711 137.545 C 195.415 138.033,184.003 149.622,170.351 163.299 C 156.700 176.977,145.530 188.366,145.530 188.609 C 145.530 188.852,145.405 189.051,145.253 189.051 C 145.100 189.051,144.976 189.174,144.976 189.325 C 144.976 189.777,146.269 188.925,206.514 148.757 L 264.588 110.038 267.561 106.994 C 269.618 104.888,270.728 103.950,271.164 103.949 C 271.854 103.948,273.197 104.609,318.875 127.417 C 336.079 136.008,350.268 142.967,350.407 142.881 C 350.545 142.795,350.658 142.627,350.658 142.507 C 350.658 142.286,345.638 136.654,342.481 133.333 C 341.538 132.342,340.218 130.908,339.545 130.146 C 338.873 129.383,336.767 127.076,334.865 125.017 C 332.963 122.959,330.957 120.776,330.408 120.166 C 329.858 119.556,327.984 117.515,326.242 115.629 C 323.124 112.251,318.931 107.656,312.128 100.159 C 310.222 98.059,307.717 95.340,306.562 94.117 C 303.750 91.139,296.680 83.426,292.629 78.915 C 290.823 76.905,288.514 74.387,287.497 73.319 C 286.481 72.252,284.590 70.194,283.297 68.746 C 280.066 65.127,277.897 62.924,277.565 62.924 C 277.412 62.924,272.885 67.420,267.503 72.914 C 262.122 78.408,257.619 82.868,257.496 82.824 C 257.373 82.780,249.790 75.291,240.644 66.182 C 231.090 56.666,223.805 49.619,223.520 49.619 C 223.232 49.619,211.895 60.765,196.477 76.206 M240.581 66.875 C 249.732 75.984,257.341 83.437,257.489 83.437 C 257.707 83.437,268.629 72.569,275.950 65.068 C 277.815 63.157,277.445 63.006,281.222 67.221 C 282.725 68.898,284.658 71.019,285.518 71.933 C 287.653 74.204,290.703 77.500,292.036 78.976 C 293.899 81.040,294.363 81.546,296.876 84.269 C 298.214 85.717,299.854 87.522,300.520 88.280 C 301.187 89.037,302.107 90.042,302.564 90.512 C 303.021 90.982,304.764 92.857,306.436 94.678 C 308.108 96.500,309.605 98.129,309.762 98.298 C 310.143 98.708,311.641 100.356,313.639 102.564 C 314.536 103.555,316.215 105.369,317.371 106.596 C 318.527 107.822,320.347 109.810,321.414 111.013 C 323.887 113.801,324.264 114.213,326.498 116.572 C 327.513 117.644,328.887 119.141,329.551 119.898 C 330.961 121.506,335.395 126.335,336.798 127.790 C 337.700 128.726,340.806 132.155,341.978 133.509 C 342.260 133.835,343.860 135.562,345.535 137.348 C 348.194 140.185,349.318 141.649,348.836 141.649 C 348.713 141.649,304.886 119.865,280.183 107.525 C 269.911 102.394,271.256 102.492,267.221 106.580 C 264.373 109.465,263.843 109.840,242.412 124.132 C 230.367 132.163,220.388 138.830,220.236 138.947 C 220.083 139.064,216.528 141.443,212.335 144.233 C 208.143 147.024,203.216 150.308,201.386 151.530 C 199.556 152.753,195.440 155.495,192.238 157.623 C 189.037 159.751,184.359 162.869,181.843 164.553 C 179.328 166.236,174.650 169.354,171.448 171.481 C 168.247 173.608,163.756 176.605,161.469 178.142 C 152.088 184.445,148.334 186.831,147.846 186.801 C 147.382 186.772,147.379 186.756,147.817 186.642 C 148.084 186.572,148.303 186.431,148.305 186.328 C 148.307 186.196,191.573 142.501,196.320 137.837 C 196.514 137.646,197.672 136.640,198.891 135.601 C 200.111 134.563,202.555 132.474,204.323 130.959 C 206.091 129.444,208.140 127.706,208.877 127.096 C 209.613 126.486,210.919 125.364,211.778 124.602 C 214.047 122.587,215.100 121.670,216.352 120.618 C 217.784 119.414,220.370 117.198,220.763 116.839 C 221.314 116.334,224.655 113.474,225.486 112.794 C 225.935 112.427,227.307 111.251,228.535 110.180 C 229.764 109.109,231.455 107.674,232.294 106.992 C 233.132 106.310,233.881 105.678,233.957 105.588 C 234.158 105.352,236.695 103.164,238.267 101.871 C 242.859 98.096,244.021 96.865,243.649 96.169 C 243.435 95.769,236.373 90.884,233.074 88.853 C 232.817 88.695,231.944 88.115,231.134 87.565 C 224.145 82.818,223.312 82.440,222.037 83.437 C 221.656 83.735,221.254 83.982,221.145 83.986 C 221.035 83.989,220.037 84.528,218.927 85.184 C 217.817 85.839,216.722 86.468,216.493 86.581 C 216.265 86.693,215.825 86.936,215.517 87.121 C 215.208 87.306,213.462 88.316,211.636 89.366 C 209.810 90.416,207.155 91.944,205.736 92.762 C 204.317 93.579,203.080 94.248,202.986 94.248 C 202.892 94.248,202.619 94.419,202.378 94.628 C 202.137 94.838,201.254 95.384,200.416 95.843 C 197.131 97.639,194.323 99.226,191.302 100.995 C 189.567 102.010,188.098 102.841,188.039 102.841 C 187.979 102.841,187.465 103.134,186.897 103.492 C 186.328 103.849,185.052 104.578,184.061 105.111 C 180.167 107.207,176.693 109.297,176.240 109.817 C 175.811 110.310,183.078 120.562,190.650 130.146 C 190.771 130.298,191.239 130.922,191.691 131.532 C 192.143 132.141,192.589 132.703,192.683 132.779 C 192.876 132.935,193.763 134.618,193.763 134.828 C 193.763 135.037,193.112 134.661,183.995 129.174 C 179.308 126.354,175.192 123.885,174.847 123.687 C 174.502 123.489,173.886 123.115,173.478 122.856 C 173.070 122.596,170.575 121.078,167.934 119.481 L 163.132 116.578 159.252 116.420 L 155.371 116.262 148.995 113.017 C 141.424 109.163,142.813 109.290,138.530 112.059 C 136.586 113.316,133.051 115.593,130.674 117.117 C 128.298 118.642,125.273 120.584,123.953 121.433 C 122.633 122.282,119.494 124.295,116.979 125.906 C 114.463 127.517,111.757 129.255,110.965 129.767 C 110.173 130.280,108.445 131.386,107.124 132.225 C 105.804 133.063,103.185 134.747,101.304 135.967 C 99.423 137.186,97.533 138.402,97.105 138.668 C 96.677 138.935,95.805 139.496,95.166 139.916 C 94.527 140.336,92.282 141.777,90.176 143.119 C 83.198 147.566,81.466 148.679,75.653 152.444 C 74.345 153.291,71.996 154.796,70.435 155.787 C 68.873 156.778,65.547 158.929,63.043 160.568 C 60.539 162.207,58.415 163.548,58.322 163.548 C 58.229 163.548,57.698 163.891,57.142 164.310 C 55.767 165.347,55.158 165.728,54.262 166.114 C 53.843 166.294,53.500 166.539,53.500 166.658 C 53.500 166.777,53.228 166.875,52.897 166.875 C 52.427 166.875,139.385 79.563,142.094 77.315 C 142.339 77.111,146.023 80.634,155.734 90.355 C 163.051 97.680,169.204 103.673,169.407 103.673 C 169.610 103.673,181.832 91.620,196.568 76.890 C 211.305 62.159,223.492 50.153,223.652 50.209 C 223.812 50.266,231.430 57.765,240.581 66.875 " stroke="none" fill="#7c94bc" fill-rule="evenodd"></path><path id="path4" d="M223.008 49.064 C 222.703 49.196,210.621 61.157,196.159 75.644 C 181.697 90.130,169.722 102.038,169.548 102.105 C 169.373 102.172,163.228 96.238,155.891 88.918 C 144.928 77.981,142.468 75.656,142.084 75.870 C 141.203 76.363,48.738 168.953,48.485 169.595 C 48.347 169.948,48.233 170.354,48.233 170.496 C 48.233 171.270,50.643 170.165,53.261 168.191 C 53.817 167.772,54.353 167.429,54.452 167.429 C 54.616 167.429,56.228 166.364,56.549 166.043 C 56.625 165.967,56.937 165.753,57.242 165.567 C 57.547 165.381,58.420 164.847,59.182 164.380 C 59.945 163.912,60.817 163.378,61.122 163.193 C 61.426 163.007,62.112 162.533,62.646 162.139 C 63.180 161.745,63.805 161.338,64.033 161.235 C 64.262 161.132,64.823 160.800,65.281 160.499 C 65.738 160.197,66.393 159.804,66.736 159.626 C 67.079 159.447,67.360 159.219,67.360 159.118 C 67.360 159.017,67.907 158.661,68.577 158.326 C 69.246 157.992,69.947 157.533,70.135 157.307 C 70.323 157.081,70.588 156.895,70.723 156.895 C 70.940 156.895,72.889 155.667,75.179 154.087 C 75.592 153.802,76.011 153.569,76.110 153.569 C 76.208 153.569,76.761 153.195,77.339 152.737 C 77.916 152.280,78.470 151.906,78.568 151.906 C 78.667 151.906,79.085 151.669,79.498 151.379 C 80.578 150.621,87.681 145.972,88.011 145.807 C 88.477 145.574,94.148 141.925,95.718 140.848 C 96.297 140.450,96.979 140.000,97.233 139.848 C 98.997 138.789,101.928 136.920,102.206 136.676 C 102.390 136.515,102.613 136.383,102.702 136.383 C 102.791 136.383,103.202 136.147,103.615 135.859 C 104.323 135.366,106.703 133.781,108.340 132.713 C 108.746 132.448,109.256 132.145,109.473 132.041 C 109.690 131.937,111.022 131.093,112.433 130.167 C 113.843 129.240,115.815 127.983,116.814 127.374 C 117.812 126.764,118.632 126.186,118.636 126.089 C 118.639 125.993,118.860 125.835,119.127 125.738 C 119.394 125.642,119.861 125.407,120.166 125.217 C 121.250 124.542,122.386 123.781,122.523 123.638 C 122.599 123.558,122.911 123.341,123.216 123.155 C 123.520 122.970,124.435 122.408,125.249 121.908 C 126.062 121.407,126.938 120.873,127.195 120.721 C 127.452 120.568,128.094 120.132,128.621 119.751 C 129.766 118.923,130.484 118.486,131.324 118.106 C 131.667 117.951,131.947 117.710,131.947 117.570 C 131.947 117.430,132.259 117.238,132.640 117.142 C 133.021 117.046,133.333 116.846,133.333 116.696 C 133.333 116.546,133.459 116.424,133.613 116.424 C 133.767 116.424,134.485 116.017,135.207 115.519 C 135.930 115.021,136.989 114.369,137.561 114.070 C 138.132 113.771,138.600 113.427,138.600 113.305 C 138.600 113.183,138.881 112.957,139.224 112.802 C 140.166 112.375,141.105 111.812,141.451 111.467 C 141.911 111.006,143.343 111.093,143.716 111.603 C 143.895 111.849,144.271 112.004,144.551 111.950 C 144.914 111.879,144.689 111.666,143.764 111.204 L 142.468 110.558 141.158 111.324 C 140.437 111.746,138.413 113.019,136.660 114.153 C 132.225 117.022,130.199 118.327,127.789 119.867 C 124.750 121.810,118.913 125.553,115.731 127.599 C 114.207 128.580,111.836 130.102,110.464 130.982 C 109.092 131.862,107.159 133.103,106.168 133.740 C 105.177 134.377,103.680 135.338,102.841 135.875 C 98.122 138.896,96.871 139.707,93.973 141.622 C 92.220 142.781,90.661 143.780,90.508 143.843 C 90.354 143.906,88.582 145.028,86.570 146.338 C 84.558 147.647,80.968 149.965,78.594 151.490 C 65.451 159.929,59.095 164.025,55.742 166.216 C 47.083 171.873,47.058 171.271,55.592 162.706 C 82.889 135.309,141.991 76.349,142.240 76.265 C 142.410 76.208,148.583 82.195,155.959 89.570 L 169.370 102.978 196.189 76.160 C 214.689 57.661,223.189 49.342,223.589 49.342 C 223.914 49.342,224.658 49.861,225.277 50.520 C 225.886 51.168,233.391 58.680,241.955 67.214 L 257.526 82.730 267.454 72.625 L 277.382 62.521 278.094 62.987 C 278.485 63.244,280.471 65.299,282.507 67.555 C 284.543 69.811,286.690 72.147,287.277 72.746 C 287.864 73.345,289.797 75.463,291.573 77.453 C 293.349 79.442,295.057 81.321,295.368 81.630 C 296.179 82.433,299.448 85.977,301.871 88.679 C 303.925 90.970,304.710 91.822,307.516 94.802 C 308.305 95.641,310.063 97.574,311.421 99.099 C 312.779 100.624,314.149 102.122,314.464 102.428 C 314.780 102.735,316.337 104.419,317.924 106.170 C 320.820 109.366,324.941 113.855,328.089 117.243 C 329.015 118.241,330.325 119.681,330.999 120.443 C 332.128 121.718,334.278 124.051,335.967 125.832 C 336.348 126.234,337.835 127.868,339.272 129.463 C 341.509 131.946,347.133 138.051,348.441 139.416 C 349.400 140.417,351.490 143.105,351.490 143.338 C 351.490 143.947,349.227 142.870,323.290 129.908 C 274.166 105.360,271.356 103.976,270.935 104.138 C 270.707 104.225,269.248 105.603,267.693 107.200 C 264.917 110.049,264.474 110.363,243.798 124.143 C 232.211 131.866,222.606 138.286,222.453 138.410 C 222.301 138.534,220.055 140.038,217.464 141.753 C 214.872 143.468,198.157 154.607,180.319 166.506 C 162.481 178.406,147.031 188.665,145.985 189.305 C 141.662 191.949,143.310 190.004,156.818 176.520 C 193.875 139.529,195.846 137.515,195.418 137.096 C 195.105 136.789,182.512 129.114,176.992 125.865 C 176.535 125.596,173.149 123.562,169.469 121.344 L 162.777 117.312 159.074 117.205 L 155.371 117.098 150.395 114.544 C 145.038 111.793,145.014 111.782,145.530 112.405 C 145.720 112.633,146.084 112.821,146.340 112.821 C 146.596 112.821,146.924 112.939,147.069 113.084 C 147.214 113.229,149.079 114.245,151.213 115.342 L 155.094 117.336 158.836 117.508 C 162.823 117.692,162.996 117.745,166.182 119.785 C 166.791 120.176,167.812 120.795,168.450 121.162 C 169.088 121.529,170.794 122.547,172.240 123.423 C 173.687 124.300,175.005 125.017,175.169 125.017 C 175.333 125.017,175.468 125.145,175.468 125.301 C 175.468 125.458,175.748 125.695,176.091 125.828 C 176.435 125.961,177.188 126.395,177.767 126.791 C 178.345 127.188,178.888 127.512,178.973 127.512 C 179.185 127.512,182.502 129.540,182.681 129.779 C 182.760 129.885,183.134 130.107,183.512 130.271 C 183.890 130.435,184.574 130.815,185.031 131.116 C 185.489 131.416,186.112 131.794,186.417 131.955 C 186.722 132.116,187.221 132.401,187.526 132.589 C 189.847 134.013,190.384 134.345,190.863 134.652 C 191.162 134.844,191.719 135.154,192.100 135.342 C 192.481 135.530,192.927 135.809,193.090 135.964 C 193.254 136.118,193.834 136.484,194.379 136.777 C 195.142 137.188,195.297 137.388,195.052 137.651 C 194.876 137.838,183.269 149.482,169.258 163.525 C 145.341 187.498,143.035 189.903,143.035 190.884 C 143.035 191.521,145.200 190.592,147.166 189.111 C 147.716 188.697,148.373 188.233,148.627 188.080 C 149.162 187.759,151.360 186.293,154.613 184.089 C 155.874 183.235,157.121 182.412,157.384 182.259 C 157.648 182.107,158.318 181.639,158.875 181.220 C 159.431 180.800,159.975 180.457,160.083 180.457 C 160.192 180.457,160.736 180.114,161.292 179.695 C 161.848 179.276,162.500 178.808,162.740 178.656 C 163.917 177.910,166.574 176.156,167.513 175.505 C 168.092 175.103,168.861 174.588,169.222 174.359 C 170.057 173.828,172.481 172.209,175.403 170.229 C 176.664 169.375,177.911 168.552,178.174 168.399 C 178.438 168.247,179.108 167.779,179.665 167.360 C 180.221 166.940,180.775 166.597,180.895 166.597 C 181.016 166.597,181.372 166.360,181.687 166.069 C 182.002 165.779,182.642 165.311,183.110 165.030 C 184.208 164.369,186.955 162.579,188.303 161.645 C 188.882 161.243,189.651 160.728,190.012 160.499 C 190.847 159.968,193.271 158.349,196.193 156.369 C 197.454 155.515,198.701 154.692,198.964 154.539 C 199.228 154.387,199.898 153.919,200.455 153.500 C 201.011 153.080,201.565 152.737,201.685 152.737 C 201.806 152.737,202.162 152.500,202.477 152.209 C 202.792 151.919,203.432 151.451,203.900 151.170 C 205.040 150.484,207.793 148.687,209.085 147.785 C 209.660 147.383,210.440 146.892,210.817 146.693 C 211.195 146.494,211.504 146.214,211.504 146.069 C 211.504 145.925,211.622 145.807,211.767 145.807 C 212.039 145.807,213.046 145.170,216.983 142.506 C 218.243 141.654,219.575 140.769,219.944 140.541 C 220.313 140.312,221.520 139.501,222.626 138.739 C 223.732 137.976,224.850 137.228,225.110 137.076 C 226.438 136.297,232.168 132.356,232.248 132.167 C 232.298 132.046,232.443 131.947,232.570 131.947 C 232.762 131.947,234.340 130.977,236.175 129.731 C 237.160 129.062,245.539 123.467,245.933 123.216 C 248.300 121.702,252.965 118.479,253.038 118.306 C 253.088 118.186,253.235 118.087,253.364 118.087 C 254.434 118.087,264.896 110.449,267.877 107.491 C 271.374 104.021,271.401 104.002,271.933 104.643 C 272.123 104.872,272.497 105.059,272.765 105.059 C 273.033 105.059,273.407 105.246,273.597 105.475 C 273.786 105.703,274.169 105.891,274.446 105.891 C 274.723 105.891,275.020 106.004,275.106 106.144 C 275.279 106.423,277.261 107.398,278.240 107.685 C 278.583 107.786,278.863 107.975,278.863 108.105 C 278.863 108.235,279.238 108.423,279.695 108.524 C 280.152 108.624,280.527 108.813,280.527 108.943 C 280.527 109.073,280.807 109.262,281.150 109.362 C 282.130 109.650,284.111 110.625,284.284 110.904 C 284.370 111.043,284.667 111.157,284.944 111.157 C 285.222 111.157,285.604 111.344,285.793 111.573 C 285.983 111.802,286.358 111.989,286.625 111.989 C 286.893 111.989,287.267 112.176,287.457 112.405 C 287.646 112.633,288.021 112.821,288.288 112.821 C 288.556 112.821,288.930 113.008,289.120 113.236 C 289.310 113.465,289.684 113.652,289.951 113.652 C 290.219 113.652,290.593 113.839,290.783 114.068 C 290.973 114.297,291.353 114.484,291.629 114.484 C 291.904 114.484,292.310 114.665,292.532 114.886 C 292.753 115.107,293.256 115.369,293.649 115.467 C 294.042 115.566,294.509 115.822,294.686 116.036 C 294.864 116.249,295.161 116.424,295.347 116.424 C 295.533 116.424,296.235 116.734,296.907 117.114 C 297.579 117.493,298.316 117.876,298.545 117.965 C 298.773 118.054,299.148 118.244,299.376 118.386 C 299.605 118.529,299.979 118.716,300.208 118.802 C 300.437 118.888,300.811 119.075,301.040 119.218 C 301.268 119.360,301.642 119.547,301.871 119.634 C 302.100 119.720,302.474 119.907,302.703 120.049 C 302.931 120.192,303.306 120.384,303.534 120.477 C 303.996 120.664,313.132 125.203,313.791 125.572 C 314.019 125.701,315.953 126.657,318.087 127.698 C 320.222 128.739,322.010 129.685,322.061 129.799 C 322.111 129.913,322.279 130.007,322.434 130.007 C 322.680 130.007,326.518 131.840,327.651 132.498 C 327.879 132.631,328.628 133.004,329.314 133.327 C 330.000 133.651,330.748 134.023,330.977 134.156 C 331.206 134.288,333.576 135.477,336.244 136.798 C 338.912 138.118,341.282 139.305,341.511 139.434 C 341.739 139.564,342.488 139.934,343.174 140.257 C 343.860 140.581,344.608 140.951,344.837 141.080 C 350.251 144.141,352.893 144.904,351.937 143.130 C 351.412 142.155,349.815 140.355,342.883 132.924 C 341.884 131.853,340.761 130.618,340.388 130.179 C 340.014 129.740,339.335 128.983,338.877 128.497 C 336.843 126.334,332.400 121.480,331.788 120.752 C 331.418 120.311,330.554 119.366,329.868 118.650 C 329.182 117.935,328.134 116.799,327.539 116.125 C 326.943 115.451,325.446 113.827,324.212 112.516 C 322.978 111.205,321.199 109.272,320.258 108.219 C 317.586 105.231,317.417 105.046,315.334 102.841 C 314.254 101.698,312.498 99.778,311.432 98.574 C 309.423 96.306,309.120 95.978,305.887 92.560 C 304.819 91.430,303.259 89.710,302.422 88.737 C 301.586 87.765,299.640 85.644,298.099 84.025 C 296.558 82.406,294.314 79.958,293.112 78.586 C 291.910 77.214,290.677 75.834,290.370 75.520 C 288.745 73.851,285.681 70.551,283.850 68.494 C 280.647 64.898,277.895 62.093,277.572 62.093 C 277.411 62.093,272.865 66.581,267.469 72.066 C 262.073 77.551,257.569 82.011,257.461 81.976 C 257.353 81.941,249.786 74.459,240.645 65.350 C 231.503 56.240,223.920 48.795,223.793 48.805 C 223.666 48.814,223.313 48.931,223.008 49.064 M222.730 83.992 C 222.628 84.158,222.981 84.267,223.615 84.265 C 224.399 84.261,224.564 84.191,224.255 83.992 C 223.713 83.641,222.947 83.641,222.730 83.992 M220.374 85.223 C 217.838 86.732,211.438 90.435,210.256 91.077 C 209.647 91.408,204.866 94.131,199.633 97.127 C 194.400 100.122,189.660 102.822,189.100 103.126 C 188.539 103.430,187.893 103.802,187.665 103.953 C 187.436 104.104,185.128 105.423,182.536 106.885 C 175.848 110.657,176.016 109.467,181.196 116.405 C 183.610 119.638,186.147 123.004,186.833 123.886 C 187.519 124.767,188.267 125.774,188.496 126.123 C 188.725 126.472,189.224 127.136,189.605 127.597 C 189.986 128.059,190.672 128.967,191.130 129.614 C 191.587 130.261,192.740 131.805,193.692 133.046 C 194.643 134.287,195.552 135.545,195.711 135.842 C 196.292 136.928,197.078 136.385,205.549 129.037 C 207.658 127.207,210.828 124.462,212.592 122.937 C 214.357 121.412,216.112 119.895,216.493 119.565 C 219.782 116.722,227.146 110.411,230.769 107.331 C 233.209 105.258,235.329 103.421,235.482 103.250 C 235.634 103.078,236.507 102.325,237.422 101.577 C 241.772 98.016,243.143 96.662,242.772 96.294 C 242.152 95.679,224.955 84.342,224.820 84.459 C 224.673 84.588,226.228 85.907,226.545 85.922 C 226.661 85.928,227.377 86.369,228.136 86.902 C 228.895 87.436,229.632 87.872,229.773 87.872 C 229.914 87.872,230.072 87.966,230.122 88.080 C 230.236 88.336,231.926 89.536,232.173 89.536 C 232.272 89.536,232.825 89.910,233.403 90.367 C 233.980 90.825,234.541 91.199,234.650 91.199 C 234.759 91.199,235.320 91.573,235.897 92.030 C 236.475 92.488,237.023 92.862,237.115 92.862 C 237.207 92.862,237.890 93.299,238.633 93.832 C 239.375 94.366,240.111 94.802,240.267 94.802 C 240.423 94.802,240.622 94.990,240.710 95.218 C 240.798 95.447,241.041 95.634,241.251 95.634 C 243.348 95.634,242.109 97.384,237.333 101.167 C 236.620 101.732,235.160 102.995,234.089 103.973 C 233.018 104.952,231.654 106.126,231.058 106.584 C 230.140 107.288,227.641 109.446,226.581 110.450 C 225.917 111.079,224.617 112.162,223.697 112.855 C 223.165 113.255,222.002 114.284,221.112 115.142 C 220.221 115.999,219.385 116.701,219.254 116.701 C 219.123 116.701,218.916 116.857,218.794 117.048 C 218.672 117.238,217.951 117.893,217.191 118.503 C 216.432 119.113,215.418 119.986,214.938 120.444 C 214.109 121.234,212.822 122.332,210.672 124.084 C 210.139 124.519,209.203 125.333,208.593 125.894 C 207.442 126.953,206.655 127.625,205.710 128.356 C 205.229 128.727,201.693 131.849,200.851 132.644 C 199.769 133.667,196.807 135.827,196.496 135.820 C 196.289 135.815,195.495 134.939,194.733 133.873 C 193.971 132.807,193.057 131.595,192.702 131.179 C 192.347 130.763,191.735 129.924,191.343 129.314 C 190.951 128.704,190.276 127.840,189.843 127.393 C 189.410 126.947,188.984 126.354,188.896 126.076 C 188.808 125.799,188.620 125.572,188.478 125.572 C 188.335 125.572,188.219 125.412,188.219 125.218 C 188.219 125.023,187.987 124.665,187.703 124.422 C 187.419 124.179,186.741 123.309,186.196 122.489 C 185.651 121.669,184.979 120.748,184.702 120.444 C 184.426 120.139,183.840 119.359,183.400 118.711 C 182.960 118.063,182.492 117.533,182.360 117.533 C 182.228 117.533,182.121 117.408,182.121 117.256 C 182.121 117.103,181.926 116.760,181.689 116.493 C 181.451 116.227,180.342 114.765,179.223 113.244 L 177.189 110.481 178.045 109.849 C 178.516 109.501,179.000 109.217,179.120 109.217 C 179.241 109.217,180.171 108.708,181.188 108.085 C 182.205 107.463,183.299 106.839,183.618 106.700 C 183.938 106.560,184.387 106.323,184.615 106.173 C 184.844 106.022,185.842 105.440,186.833 104.878 C 187.824 104.317,188.697 103.785,188.773 103.696 C 188.850 103.607,189.848 103.052,190.991 102.462 C 192.134 101.873,193.606 101.031,194.262 100.591 C 194.918 100.152,195.627 99.792,195.840 99.792 C 196.052 99.792,196.307 99.660,196.407 99.498 C 196.507 99.336,196.857 99.085,197.186 98.939 C 197.514 98.794,198.157 98.429,198.614 98.129 C 199.071 97.829,199.755 97.448,200.133 97.284 C 200.511 97.120,200.885 96.900,200.965 96.795 C 201.044 96.690,201.483 96.409,201.941 96.170 C 203.815 95.190,205.273 94.378,205.405 94.242 C 205.481 94.163,205.856 93.943,206.237 93.754 C 206.618 93.564,207.554 93.031,208.316 92.569 C 209.078 92.106,210.076 91.543,210.534 91.316 C 210.991 91.089,211.739 90.662,212.197 90.367 C 212.654 90.072,213.472 89.600,214.014 89.319 C 214.875 88.871,219.217 86.357,220.374 85.636 C 220.603 85.493,221.059 85.260,221.387 85.117 C 221.993 84.853,222.533 84.249,222.123 84.293 C 222.000 84.306,221.213 84.724,220.374 85.223 " stroke="none" fill="#c9d3e3" fill-rule="evenodd"></path></g></svg>